<svg width="114" height="43" viewBox="0 0 114 43" fill="none" id="logo" xmlns="http://www.w3.org/2000/svg">
<g clip-path="url(#clip0_1611_12983)">
<path d="M0 0.323242V19.88H14.1107V15.4526H5.07855V12.0764H13.3392V7.77646H5.07855V4.71874H14.1107V0.323242H0Z" fill="#414141"/>
<path d="M28.9465 19.88L33.0286 8.25422V19.88H37.8822V0.323242H31.6144L27.3072 12.4905L22.9679 0.323242H16.668V19.88H21.4894V8.25422L25.6036 19.88H28.9465Z" fill="#414141"/>
<path d="M49.4842 13.7964C53.7592 13.7964 56.6521 11.4075 56.6521 7.07573C56.6521 2.71209 53.7592 0.323242 49.4842 0.323242H40.8379V19.88H45.9485V13.7964H49.4842ZM51.6378 7.07573C51.6378 8.54089 50.8021 9.52828 48.9379 9.52828H45.9485V4.62317H48.9379C50.8021 4.62317 51.6378 5.57872 51.6378 7.07573Z" fill="#414141"/>
<path d="M58.8555 19.88H72.8697V15.4526H64.0303V0.323242H58.8555V19.88Z" fill="#414141"/>
<path d="M94.4065 10.1824C94.4065 4.27213 90.4562 0 84.7394 0C79.0549 0 75.1367 4.27213 75.1367 10.1824C75.1367 16.0606 79.0549 20.3649 84.7394 20.3649C90.4562 20.3649 94.4065 16.0606 94.4065 10.1824ZM89.2038 10.1824C89.2038 13.5873 87.4052 15.8358 84.7394 15.8358C82.0739 15.8358 80.3396 13.5873 80.3396 10.1824C80.3396 6.77757 82.0739 4.52909 84.7394 4.52909C87.4052 4.52909 89.2038 6.77757 89.2038 10.1824Z" fill="url(#paint0_linear_1611_12983)"/>
<path d="M104.446 7.96758L100.309 0.323242H94.7305L101.72 12.9364V19.88H106.883V12.9364L114 0.323242H108.582L104.446 7.96758Z" fill="#414141"/>
<path d="M27.8516 32.8101C27.8516 38.7847 31.8252 42.9925 37.3818 42.9925C42.3247 42.9925 45.2321 40.0694 45.9429 36.0221H40.774C40.257 37.4997 39.191 38.4634 37.3818 38.4634C34.6359 38.4634 33.0852 36.0221 33.0852 32.8101C33.0852 29.5659 34.6359 27.1568 37.3818 27.1568C39.191 27.1568 40.257 28.1204 40.774 29.5659H45.9429C45.2321 25.5506 42.3247 22.6277 37.3818 22.6277C31.8252 22.6277 27.8516 26.8355 27.8516 32.8101Z" fill="#414141"/>
<path d="M53.2939 22.9488H48.0928V42.6712H53.2939V22.9488Z" fill="#414141"/>
<path d="M55.4248 27.3815H61.5304V42.6712H66.7318V27.3815H72.8699V22.9488H55.4248V27.3815Z" fill="#414141"/>
<path d="M85.189 31.0773L80.7258 23.1124H75.1367L82.4588 36.0472V42.9925H87.6301V36.0472L94.7304 23.1124H89.3021L85.189 31.0773Z" fill="url(#paint1_linear_1611_12983)"/>
</g>
<defs>
<linearGradient id="paint0_linear_1611_12983" x1="79.7424" y1="-3.82249e-08" x2="84.772" y2="20.3648" gradientUnits="userSpaceOnUse">
<stop stop-color="#FBF710"/>
<stop offset="0.640625" stop-color="#F91E5B"/>
</linearGradient>
<linearGradient id="paint1_linear_1611_12983" x1="79.8467" y1="24.613" x2="90.1268" y2="51.6508" gradientUnits="userSpaceOnUse">
<stop stop-color="#12A1FF"/>
<stop offset="0.791667" stop-color="#2A00DE"/>
</linearGradient>
<clipPath id="clip0_1611_12983">
<rect width="114" height="43" fill="white"/>
</clipPath>
</defs>
</svg>
